<svg aria-hidden="true" style="position:absolute;width:0;height:0;overflow:hidden" xmlns="http://www.w3.org/2000/svg"><defs><symbol id="icon-icon-send-1" viewBox="0 0 32 32"><path fill="#fff" style="fill:var(--color1, #fff)" d="M32.009 0 0 18.005l10.23 3.788L26.008 7.002 14.007 23.193l.009.003-.012-.003v8.816l5.736-6.693 7.269 2.691 5-28.008z"/></symbol><symbol id="icon-person-black-18dp-1-1" viewBox="0 0 32 32"><path d="M16.012 16.012a5.337 5.337 0 0 0 0-10.674 5.337 5.337 0 0 0 0 10.674zm0 2.669c-3.564 0-10.675 1.788-10.675 5.337v1.334c0 .733.6 1.334 1.334 1.334h18.681c.733 0 1.334-.601 1.334-1.334v-1.334c0-3.549-7.113-5.337-10.675-5.337z"/></symbol><symbol id="icon-phone-black-18dp-1-1" viewBox="0 0 32 32"><path d="m24.901 19.79-3.27-.374a2.554 2.554 0 0 0-2.112.733l-2.37 2.37c-3.672-1.895-6.59-4.814-8.434-8.378l-.051-.108 2.384-2.379a2.554 2.554 0 0 0 .732-2.124l.001.012-.374-3.245A2.58 2.58 0 0 0 8.848 4.02h-2.23c-1.455 0-2.665 1.21-2.576 2.663.683 10.995 9.478 19.777 20.46 20.46 1.454.089 2.665-1.121 2.665-2.576v-2.239a2.551 2.551 0 0 0-2.255-2.534l-.012-.001z"/></symbol><symbol id="icon-email-black-18dp-1-1" viewBox="0 0 32 32"><path d="M26.687 5.337H5.337a2.665 2.665 0 0 0-2.655 2.669l-.014 16.012a2.677 2.677 0 0 0 2.669 2.669h21.35a2.677 2.677 0 0 0 2.669-2.669V8.006a2.677 2.677 0 0 0-2.669-2.669zm-.533 5.672-9.433 5.896a1.347 1.347 0 0 1-1.422-.003l.006.003-9.433-5.896A1.133 1.133 0 1 1 7.077 9.09l-.004-.003 8.94 5.59 8.94-5.592a1.133 1.133 0 1 1 1.206 1.918l-.005.003z"/></symbol><symbol id="icon-close-black-18dp-2-1" viewBox="0 0 32 32"><path d="m26.667 7.303-1.97-1.97-7.808 7.808-7.808-7.808-1.97 1.97 7.808 7.808-7.808 7.808 1.97 1.97 7.808-7.808 7.808 7.808 1.97-1.97-7.808-7.808 7.808-7.808z"/></symbol></defs></svg><svg aria-hidden="true" style="position:absolute;width:0;height:0;overflow:hidden" xmlns="http://www.w3.org/2000/svg"><defs><symbol id="icon-Vector" viewBox="0 0 42 32"><path fill="#fff" style="fill:var(--color1, #fff);stroke:var(--color1, #fff)" stroke="#fff" stroke-width=".64" d="m6.263 15.205-.22-.21-3.307 3.132 11.651 11.114L38.864 5.89l-3.285-3.134-21.192 20.197-8.124-7.75z"/></symbol></defs></svg>